<svg id="Layer_3" enable-background="new 0 0 64 64" height="300" viewBox="0 0 64 64" width="300" xmlns="http://www.w3.org/2000/svg" version="1.1" xmlns:xlink="http://www.w3.org/1999/xlink" xmlns:svgjs="http://svgjs.dev/svgjs"><g transform="matrix(1,0,0,1,0,0)"><g><path d="m55 28.444v33.556h-46v-33.555l23-20.445z" fill="#f8cf6d" fill-opacity="1" data-original-color="#c8c8c8ff" stroke="none" stroke-opacity="1"/><path d="m9 31.445v30.555h46v-30.556l-23-20.444z" fill="#f8cf6d" fill-opacity="1" data-original-color="#dcdcdcff" stroke="none" stroke-opacity="1"/><path d="m32.001 2 29.999 27-3 3-27-24-27 24-3-3z" fill="#ee7231" fill-opacity="1" data-original-color="#dd4946ff" stroke="none" stroke-opacity="1"/><path d="m3.579 30.579 1.421 1.421 27-24 27 24 1.421-1.421-28.42-25.579c-.001 0-22.259 20.033-28.422 25.579z" fill="#ee7231" fill-opacity="1" data-original-color="#c53330ff" stroke="none" stroke-opacity="1"/><path d="m45 13.7v-7.7h10v16.7" fill="#ee7231" fill-opacity="1" data-original-color="#672a0dff" stroke="none" stroke-opacity="1"/><path d="m45 11.7 10 9v-14.7h-10z" fill="#ee7231" fill-opacity="1" data-original-color="#893b1bff" stroke="none" stroke-opacity="1"/><path d="m24 39 5 5 1.172-1.172c1.17-1.17 2.758-1.828 4.414-1.828.906 0 1.774.36 2.414 1 .64.64 1 1.509 1 2.414v1.586l4 4 7-7-4-4h-1.586c-.906 0-1.774-.36-2.414-1-.64-.64-1-1.509-1-2.414v-2.586l-3.275-3.275c-1.796-1.796-3.956-3.187-6.334-4.079l-.005-.002c-2.893-1.084-5.956-1.641-9.045-1.644-.88-.001-1.748.204-2.535.597-.494.247-.806.752-.806 1.304 0 .651.431 1.223 1.057 1.401l3.345.956c1.704.487 3.256 1.4 4.509 2.653l.043.043c.669.669 1.045 1.576 1.045 2.521v.046c0 .947-.376 1.855-1.045 2.524z" fill="#2f79f0" fill-opacity="1" data-original-color="#5a5b5dff" stroke="none" stroke-opacity="1"/><path d="m41.414 41c-.905 0-1.774-.36-2.414-1s-1-1.509-1-2.414v-2.586l-3.275-3.275c-1.796-1.796-3.956-3.187-6.334-4.079l-.005-.002c-2.893-1.084-5.956-1.641-9.045-1.644-.439 0-.875.05-1.3.15.096.541.474.997 1.016 1.152l3.345.956c1.704.487 3.256 1.4 4.509 2.653l.043.043c.669.669 1.045 1.576 1.045 2.521v.046c0 .947-.376 1.855-1.045 2.524l-2 2-.954.955 5 5 1.172-1.172c1.17-1.17 2.758-1.828 4.414-1.828.905 0 1.774.36 2.414 1s1 1.509 1 2.414v1.586l4 4 5-5-4-4z" fill="#88b8f9" fill-opacity="1" data-original-color="#777777ff" stroke="none" stroke-opacity="1"/><path d="m12.999 62 10.001-12-5-5-9 7v10z" fill="#2f79f0" fill-opacity="1" data-original-color="#5a5b5dff" stroke="none" stroke-opacity="1"/><path d="m9 62h3.999l10.001-12-3-3-11 9.167z" fill="#88b8f9" fill-opacity="1" data-original-color="#777777ff" stroke="none" stroke-opacity="1"/><path d="m19.257 42.379h8.485v4.243h-8.485z" fill="#e7b532" transform="matrix(.707 -.707 .707 .707 -24.583 29.651)" fill-opacity="1" data-original-color="#e7b532ff" stroke="none" stroke-opacity="1"/><path d="m38.55 41.672h9.899v5.657h-9.899z" fill="#b7dbf9" transform="matrix(.707 -.707 .707 .707 -18.725 43.793)" fill-opacity="1" data-original-color="#959595ff" stroke="none" stroke-opacity="1"/><path d="m19.464 42.879h7.071v4.243h-7.071z" fill="#f9cb66" transform="matrix(.707 -.707 .707 .707 -25.083 29.444)" fill-opacity="1" data-original-color="#f9cb66ff" stroke="none" stroke-opacity="1"/><path d="m56 22.255v-16.255c0-.553-.447-1-1-1h-10c-.553 0-1 .447-1 1v5.454l-11.33-10.197c-.184-.165-.422-.257-.669-.257-.385 0-.385 0-15.67 13.757l-15 13.5c-.204.183-.323.442-.331.717-.007.274.099.539.293.733l3 3c.374.374.978.393 1.371.04l2.336-2.076v31.329c0 .553.447 1 1 1h46c.553 0 1-.447 1-1v-31.329l2.336 2.076c.189.169.427.253.664.253.257 0 .513-.099.707-.293l3-3c.194-.194.3-.459.293-.733-.008-.274-.127-.533-.331-.717zm-10-15.255h8v13.455l-8-7.2zm-36 45.489 7.917-6.158 3.73 3.73-9.117 10.939h-2.53zm17.618-22.285c-1.369-1.369-3.078-2.375-4.941-2.908l-3.345-.956c-.195-.056-.332-.236-.332-.44 0-.174.097-.33.253-.408.643-.322 1.363-.492 2.082-.492h.005c2.98.003 5.905.535 8.7 1.583 2.259.847 4.271 2.142 5.979 3.85l2.981 2.981v2.172c0 1.179.459 2.287 1.293 3.121.653.653 1.476 1.066 2.367 1.219l-3.733 3.733c-.153-.891-.567-1.714-1.219-2.367-.835-.833-1.943-1.292-3.122-1.292-1.935 0-3.753.753-5.121 2.121l-.465.465-3.586-3.586 2.247-2.247c.864-.864 1.339-2.012 1.338-3.277 0-1.219-.475-2.366-1.381-3.272zm17.382 10.21 2.586 2.586-5.586 5.586-2.586-2.586zm-18.414 2.586-4.586 4.586-1.586-1.586 4.586-4.586zm27.414 18h-38.865l8.634-10.359c.331-.397.305-.982-.062-1.348l-.293-.293 4.586-4.586.293.293c.391.391 1.023.391 1.414 0l1.172-1.172c.99-.99 2.307-1.535 3.707-1.535.645 0 1.251.251 1.707.707s.707 1.063.707 1.707v1.586c0 .266.105.52.293.707l4 4c.195.195.451.293.707.293s.512-.098.707-.293l7-7c.391-.391.391-1.023 0-1.414l-4-4c-.187-.188-.441-.293-.707-.293h-1.586c-.645 0-1.251-.251-1.707-.707s-.707-1.063-.707-1.707v-2.586c0-.266-.105-.52-.293-.707l-3.274-3.274c-1.911-1.911-4.162-3.36-6.695-4.311-3.015-1.13-6.175-1.705-9.396-1.708-.002 0-.005 0-.007 0-1.027 0-2.057.243-2.975.702-.839.418-1.36 1.261-1.36 2.198 0 1.091.732 2.062 1.782 2.363l3.345.956c1.537.439 2.947 1.269 4.12 2.441.485.485.752 1.13.752 1.861.001.686-.267 1.331-.752 1.816l-2.954 2.954c-.391.391-.391 1.023 0 1.414l.293.295-4.586 4.586-.293-.293c-.357-.357-.924-.393-1.321-.082l-7.386 5.744v-21.062l22-19.555 22 19.555zm4.96-30.374-26.296-23.373c-.189-.169-.427-.253-.664-.253s-.475.084-.664.253l-26.296 23.373-1.588-1.588c4.26-3.833 24.595-22.135 28.549-25.692l28.547 25.692z" fill="#000000" fill-opacity="1" data-original-color="#000000ff" stroke="none" stroke-opacity="1"/></g></g></svg>